name rise30.3154peak39.0474fall46.5389.mot
datacolumns 19
datarows 30
range 10.78496200000000 10.83329700000000
endheader
time	ground_force1_vx	ground_force1_vy	ground_force1_vz	ground_force1_px	ground_force1_py	ground_force1_pz	ground_force2_vx	ground_force2_vy	ground_force2_vz	ground_force2_px	ground_force2_py	ground_force2_pz	ground_torque1_x	ground_torque1_y	ground_torque1_z	ground_torque2_x	ground_torque2_y	ground_torque2_z	
10.78496200000000	-0.59130500000000	676.23307899999998	46.14197500000000	0.24018500000000	0.00000000000000	0.11667000000000	0.00000000000000	0.00000000000000	0.00000000000000	0.00000000000000	0.00000000000000	0.00000000000000	0.00000000000000	23.13364600000000	0.00000000000000	0.00000000000000	0.00000000000000	0.00000000000000	
10.78663000000000	-1.37058300000000	677.31575499999997	46.23479700000000	0.23918200000000	0.00000000000000	0.11667500000000	0.00000000000000	0.00000000000000	0.00000000000000	0.00000000000000	0.00000000000000	0.00000000000000	0.00000000000000	23.30897600000000	0.00000000000000	0.00000000000000	0.00000000000000	0.00000000000000	
10.78829400000000	-2.15804800000000	678.50453700000003	46.33274900000000	0.23821100000000	0.00000000000000	0.11667700000000	0.00000000000000	0.00000000000000	0.00000000000000	0.00000000000000	0.00000000000000	0.00000000000000	0.00000000000000	23.49070900000000	0.00000000000000	0.00000000000000	0.00000000000000	0.00000000000000	
10.78995800000000	-2.95335500000000	679.79966899999999	46.43574300000000	0.23726900000000	0.00000000000000	0.11667500000000	0.00000000000000	0.00000000000000	0.00000000000000	0.00000000000000	0.00000000000000	0.00000000000000	0.00000000000000	23.67858100000000	0.00000000000000	0.00000000000000	0.00000000000000	0.00000000000000	
10.79163000000000	-3.75614100000000	681.20127500000001	46.54369600000000	0.23635700000000	0.00000000000000	0.11666900000000	0.00000000000000	0.00000000000000	0.00000000000000	0.00000000000000	0.00000000000000	0.00000000000000	0.00000000000000	23.87231600000000	0.00000000000000	0.00000000000000	0.00000000000000	0.00000000000000	
10.79330000000000	-4.56601900000000	682.70935099999997	46.65653600000000	0.23547200000000	0.00000000000000	0.11666100000000	0.00000000000000	0.00000000000000	0.00000000000000	0.00000000000000	0.00000000000000	0.00000000000000	0.00000000000000	24.07162900000000	0.00000000000000	0.00000000000000	0.00000000000000	0.00000000000000	
10.79496600000000	-5.38258500000000	684.32375700000000	46.77419300000000	0.23461300000000	0.00000000000000	0.11664900000000	0.00000000000000	0.00000000000000	0.00000000000000	0.00000000000000	0.00000000000000	0.00000000000000	0.00000000000000	24.27622300000000	0.00000000000000	0.00000000000000	0.00000000000000	0.00000000000000	
10.79663300000000	-6.20541400000000	686.04421700000000	46.89660700000000	0.23377900000000	0.00000000000000	0.11663300000000	0.00000000000000	0.00000000000000	0.00000000000000	0.00000000000000	0.00000000000000	0.00000000000000	0.00000000000000	24.48579700000000	0.00000000000000	0.00000000000000	0.00000000000000	0.00000000000000	
10.79829700000000	-7.03406600000000	687.87030800000002	47.02372600000000	0.23296800000000	0.00000000000000	0.11661400000000	0.00000000000000	0.00000000000000	0.00000000000000	0.00000000000000	0.00000000000000	0.00000000000000	0.00000000000000	24.70003700000000	0.00000000000000	0.00000000000000	0.00000000000000	0.00000000000000	
10.79995800000000	-7.86807900000000	689.80145900000002	47.15550000000000	0.23217800000000	0.00000000000000	0.11659200000000	0.00000000000000	0.00000000000000	0.00000000000000	0.00000000000000	0.00000000000000	0.00000000000000	0.00000000000000	24.91862600000000	0.00000000000000	0.00000000000000	0.00000000000000	0.00000000000000	
10.80162500000000	-8.70697800000000	691.83693800000003	47.29189000000000	0.23140700000000	0.00000000000000	0.11656700000000	0.00000000000000	0.00000000000000	0.00000000000000	0.00000000000000	0.00000000000000	0.00000000000000	0.00000000000000	25.14124000000000	0.00000000000000	0.00000000000000	0.00000000000000	0.00000000000000	
10.80329300000000	-9.55026800000000	693.97585400000003	47.43286200000000	0.23065400000000	0.00000000000000	0.11653900000000	0.00000000000000	0.00000000000000	0.00000000000000	0.00000000000000	0.00000000000000	0.00000000000000	0.00000000000000	25.36754800000000	0.00000000000000	0.00000000000000	0.00000000000000	0.00000000000000	
10.80498300000000	-10.39744000000000	696.21714499999996	47.57838700000000	0.22991700000000	0.00000000000000	0.11650800000000	0.00000000000000	0.00000000000000	0.00000000000000	0.00000000000000	0.00000000000000	0.00000000000000	0.00000000000000	25.59721700000000	0.00000000000000	0.00000000000000	0.00000000000000	0.00000000000000	
10.80663100000000	-11.24797100000000	698.55957400000000	47.72844200000000	0.22919400000000	0.00000000000000	0.11647400000000	0.00000000000000	0.00000000000000	0.00000000000000	0.00000000000000	0.00000000000000	0.00000000000000	0.00000000000000	25.82990800000000	0.00000000000000	0.00000000000000	0.00000000000000	0.00000000000000	
10.80829800000000	-12.10132300000000	701.00172799999996	47.88301100000000	0.22848300000000	0.00000000000000	0.11643800000000	0.00000000000000	0.00000000000000	0.00000000000000	0.00000000000000	0.00000000000000	0.00000000000000	0.00000000000000	26.06528200000000	0.00000000000000	0.00000000000000	0.00000000000000	0.00000000000000	
10.80996600000000	-12.95694400000000	703.54200500000002	48.04208000000000	0.22778200000000	0.00000000000000	0.11639900000000	0.00000000000000	0.00000000000000	0.00000000000000	0.00000000000000	0.00000000000000	0.00000000000000	0.00000000000000	26.30299700000000	0.00000000000000	0.00000000000000	0.00000000000000	0.00000000000000	
10.81162500000000	-13.81427000000000	706.17861600000003	48.20564400000000	0.22708900000000	0.00000000000000	0.11635700000000	0.00000000000000	0.00000000000000	0.00000000000000	0.00000000000000	0.00000000000000	0.00000000000000	0.00000000000000	26.54271000000000	0.00000000000000	0.00000000000000	0.00000000000000	0.00000000000000	
10.81329900000000	-14.67272500000000	708.90957400000002	48.37369700000000	0.22640300000000	0.00000000000000	0.11631400000000	0.00000000000000	0.00000000000000	0.00000000000000	0.00000000000000	0.00000000000000	0.00000000000000	0.00000000000000	26.78407900000000	0.00000000000000	0.00000000000000	0.00000000000000	0.00000000000000	
10.81496400000000	-15.53172200000000	711.73269600000003	48.54624300000000	0.22572100000000	0.00000000000000	0.11626800000000	0.00000000000000	0.00000000000000	0.00000000000000	0.00000000000000	0.00000000000000	0.00000000000000	0.00000000000000	27.02676000000000	0.00000000000000	0.00000000000000	0.00000000000000	0.00000000000000	
10.81662800000000	-16.39066300000000	714.64559599999995	48.72328400000000	0.22504200000000	0.00000000000000	0.11622100000000	0.00000000000000	0.00000000000000	0.00000000000000	0.00000000000000	0.00000000000000	0.00000000000000	0.00000000000000	27.27041400000000	0.00000000000000	0.00000000000000	0.00000000000000	0.00000000000000	
10.81829200000000	-17.24894200000000	717.64568199999997	48.90482800000000	0.22436400000000	0.00000000000000	0.11617200000000	0.00000000000000	0.00000000000000	0.00000000000000	0.00000000000000	0.00000000000000	0.00000000000000	0.00000000000000	27.51470300000000	0.00000000000000	0.00000000000000	0.00000000000000	0.00000000000000	
10.81996600000000	-18.10594400000000	720.73015299999997	49.09088400000000	0.22368700000000	0.00000000000000	0.11612100000000	0.00000000000000	0.00000000000000	0.00000000000000	0.00000000000000	0.00000000000000	0.00000000000000	0.00000000000000	27.75929200000000	0.00000000000000	0.00000000000000	0.00000000000000	0.00000000000000	
10.82162500000000	-18.96104500000000	723.89599799999996	49.28146500000000	0.22300700000000	0.00000000000000	0.11606900000000	0.00000000000000	0.00000000000000	0.00000000000000	0.00000000000000	0.00000000000000	0.00000000000000	0.00000000000000	28.00384900000000	0.00000000000000	0.00000000000000	0.00000000000000	0.00000000000000	
10.82329900000000	-19.81361600000000	727.13999400000000	49.47658100000000	0.22232400000000	0.00000000000000	0.11601500000000	0.00000000000000	0.00000000000000	0.00000000000000	0.00000000000000	0.00000000000000	0.00000000000000	0.00000000000000	28.24804900000000	0.00000000000000	0.00000000000000	0.00000000000000	0.00000000000000	
10.82495800000000	-20.66302100000000	730.45870600000001	49.67624700000000	0.22163700000000	0.00000000000000	0.11596100000000	0.00000000000000	0.00000000000000	0.00000000000000	0.00000000000000	0.00000000000000	0.00000000000000	0.00000000000000	28.49156800000000	0.00000000000000	0.00000000000000	0.00000000000000	0.00000000000000	
10.82662700000000	-21.50862100000000	733.84848499999998	49.88047500000000	0.22094400000000	0.00000000000000	0.11590500000000	0.00000000000000	0.00000000000000	0.00000000000000	0.00000000000000	0.00000000000000	0.00000000000000	0.00000000000000	28.73409100000000	0.00000000000000	0.00000000000000	0.00000000000000	0.00000000000000	
10.82829600000000	-22.34977200000000	737.30547200000001	50.08927600000000	0.22024400000000	0.00000000000000	0.11584900000000	0.00000000000000	0.00000000000000	0.00000000000000	0.00000000000000	0.00000000000000	0.00000000000000	0.00000000000000	28.97530900000000	0.00000000000000	0.00000000000000	0.00000000000000	0.00000000000000	
10.82995800000000	-23.18582600000000	740.82559800000001	50.30266300000000	0.21953700000000	0.00000000000000	0.11579200000000	0.00000000000000	0.00000000000000	0.00000000000000	0.00000000000000	0.00000000000000	0.00000000000000	0.00000000000000	29.21491600000000	0.00000000000000	0.00000000000000	0.00000000000000	0.00000000000000	
10.83163300000000	-24.01613700000000	744.40458599999999	50.52064100000000	0.21882100000000	0.00000000000000	0.11573400000000	0.00000000000000	0.00000000000000	0.00000000000000	0.00000000000000	0.00000000000000	0.00000000000000	0.00000000000000	29.45261700000000	0.00000000000000	0.00000000000000	0.00000000000000	0.00000000000000	
10.83329700000000	-24.84005600000000	748.03795500000001	50.74321500000000	0.21809700000000	0.00000000000000	0.11567600000000	0.00000000000000	0.00000000000000	0.00000000000000	0.00000000000000	0.00000000000000	0.00000000000000	0.00000000000000	29.68812200000000	0.00000000000000	0.00000000000000	0.00000000000000	0.00000000000000	
